<?xml version="1.0" encoding="UTF-8"?> <svg xmlns="http://www.w3.org/2000/svg" viewBox="0 0 247.81 88.97"><defs><style>.cls-1{fill:#fff;}.cls-2{fill:#c5801e;}</style></defs><title>VH-logo-REV</title><g id="Layer_2" data-name="Layer 2"><g id="Layer_1-2" data-name="Layer 1"><g id="Layer_2-2" data-name="Layer 2"><g id="Layer_1-2-2" data-name="Layer 1-2"><path class="cls-1" d="M165.06,2.79c0,.67-.38,1-1.14,1h-.71a35.18,35.18,0,0,0-3.7-.25q-10.59,0-25,9.26a80.24,80.24,0,0,0-11.69,9.08q-4.65,4.53-17.43,19Q90.32,58.11,82.67,63.66q-4,3-4.44,3c-.16,0-.25-.08-.25-.23s.3-.45.91-1.27A93.11,93.11,0,0,0,91.34,42.78q5.18-12.91,5.18-21.56,0-13.9-11.25-13.91-4.44,0-10.22,3.05a42.23,42.23,0,0,0-10.56,7.89,43.81,43.81,0,0,0-8.27,11.81,28.44,28.44,0,0,0-3.1,12.19,11.33,11.33,0,0,0,2.8,8.06,9.68,9.68,0,0,0,7.43,3q9.12,0,17.75-11.66,6.16-8.32,6.16-14.89a7.06,7.06,0,0,0-1.47-4.7,4.85,4.85,0,0,0-3.94-1.75,6.69,6.69,0,0,0-2.78.64c-.93.42-1.39.85-1.39,1.28,0,.16.1.25.29.25h.32c.76-.11,1.18-.17,1.26-.17,1.21,0,1.82.67,1.82,2a2.88,2.88,0,0,1-1,2.19,3.2,3.2,0,0,1-2.28.92c-1.69,0-2.54-.88-2.54-2.62a4.74,4.74,0,0,1,1.86-3.71,6.56,6.56,0,0,1,4.4-1.58,5.62,5.62,0,0,1,4.45,1.95,7.55,7.55,0,0,1,1.66,5.08q0,8.06-8,17.66Q71.79,54,63.16,54a11.36,11.36,0,0,1-8.84-3.78,14,14,0,0,1-3.4-9.77q0-11.43,11.46-22.57T85.5,6.7a14.39,14.39,0,0,1,11.27,4.83q4.32,4.83,4.32,12.69,0,8.38-4.72,17.64T81.15,63.37a2.06,2.06,0,0,0-.41.57l.08.12c.47,0,2.19-1.27,5.14-3.82A77.6,77.6,0,0,0,93,53.37q3.3-3.59,17.35-19.59A154.94,154.94,0,0,1,125,18.86a91,91,0,0,1,14.17-9.93Q151.92,1.6,161.7,1.6C163.92,1.6,165.06,2,165.06,2.79Z"></path><path class="cls-1" d="M118.85,35.43a3.65,3.65,0,0,0,2.65-1.25,3.83,3.83,0,0,0,1.21-2.69,1.56,1.56,0,0,0-1.31-1.77,1.93,1.93,0,0,0-.48,0A3.81,3.81,0,0,0,118.25,31,3.7,3.7,0,0,0,117,33.6a1.63,1.63,0,0,0,1.4,1.83A1.69,1.69,0,0,0,118.85,35.43Zm128.79,12.8c-.23,0-.5.22-.83.66q-9.44,12.7-15.95,12.71-3.83,0-3.83-3.53,0-2.82,2.8-7,9-1.82,12.92-3.89c2.59-1.39,3.87-3.08,3.87-5.06a2.71,2.71,0,0,0-1-2.16,3.76,3.76,0,0,0-2.53-.9c-2.28,0-5.22,1-8.84,3q-7.06,3.85-9.3,8.54a52,52,0,0,1-6.15,6.7,51,51,0,0,1-8.61,5.88L220.4,45.55c2.22-3.85,3.43-5.91,3.62-6.16a22.09,22.09,0,0,1-3.15.29,7.53,7.53,0,0,1-1.94-.29l-2.31,4.14a5.09,5.09,0,0,0,.37-1.77c0-1.81-.82-2.72-2.47-2.72q-3.54,0-9.75,3.87c-3.75,2.34-6.35,4.83-7.83,7.48A67.74,67.74,0,0,1,190.78,58q-3.63,3.77-5.28,3.77c-1.07,0-1.6-.65-1.6-1.94s1.26-4.12,3.79-8.34l7.28-12a17.48,17.48,0,0,1-2.89.29,9.54,9.54,0,0,1-2.19-.29l-2.1,4a7.26,7.26,0,0,0,.33-1.85,2.23,2.23,0,0,0-1.92-2.5,2.66,2.66,0,0,0-.63,0q-3,0-7.87,2.72-6.88,3.76-9.5,8.24c-5.41,7.8-9.29,11.72-11.65,11.72a1.66,1.66,0,0,1-1.91-1.38,1.55,1.55,0,0,1,0-.48,9.85,9.85,0,0,1,1.69-4.52l9.16-15.68h5.38l.33-.62h-5.38l4.72-8a8.68,8.68,0,0,1-4.74,0l-4.81,8h-4.16l-.41.62h4.19l-6.25,10.49q-8.19,11.51-11.66,11.5A1.5,1.5,0,0,1,141,60.43a1.41,1.41,0,0,1,0-.41q0-1.6,3.87-7.41c2.51-3.78,3.78-6.59,3.78-8.43a5.59,5.59,0,0,0-1.23-3.66,3.81,3.81,0,0,0-3-1.49c-1.47,0-3.08.83-4.81,2.47a72.08,72.08,0,0,0-7.45,9.17q3.08-4.7,3.08-7.32a4.86,4.86,0,0,0-1-3,2.94,2.94,0,0,0-2.38-1.28q-2.19,0-8.46,8.45l-.88,1.08q-9.18,13.11-12.83,13.11c-1.28,0-1.92-.62-1.92-1.85s.67-2.92,2-5.14l9.33-15.34a21.4,21.4,0,0,1-3.1.29,9.11,9.11,0,0,1-2-.29l-6.46,10.9c-1.9,3.23-2.86,5.64-2.86,7.23a4.84,4.84,0,0,0,1.3,3.43,4.2,4.2,0,0,0,3.22,1.38q4.06,0,11.79-10.75l1.76-2.43c.06-.09.36-.44.5-.64,4.11-5.9,6.88-8.85,8.28-8.85.67,0,1,.41,1,1.23q0,2.19-5.49,10.92L120.61,62a22.44,22.44,0,0,1,2.72-.17c.27,0,1.08.06,2.42.17q12.5-22.32,18.49-22.32c1.18,0,1.77.56,1.77,1.69q0,1.35-3.34,6.29a62.31,62.31,0,0,0-4,6.28,7.83,7.83,0,0,0-.75,3.43,5.15,5.15,0,0,0,1.26,3.54,4,4,0,0,0,3.12,1.44q2.82,0,7.74-5.85c.94-1.11,1.76-2.1,2.48-3a10,10,0,0,0-1,3.94,5,5,0,0,0,1.3,3.5,4.18,4.18,0,0,0,3.22,1.4q3.77,0,11.08-10a10.87,10.87,0,0,0-.56,3.44A7.44,7.44,0,0,0,168,60.46a4.48,4.48,0,0,0,3.66,1.87,6.36,6.36,0,0,0,4.22-2,56,56,0,0,0,6.28-7.78,10.7,10.7,0,0,0-1.31,4.82,5.32,5.32,0,0,0,1.19,3.55,3.82,3.82,0,0,0,3.09,1.42q2.81,0,7.66-5.85c1.22-1.45,2.23-2.68,3.08-3.74a10.76,10.76,0,0,0-.46,3.09,7.15,7.15,0,0,0,1.5,4.61,4.51,4.51,0,0,0,3.64,1.89,5.61,5.61,0,0,0,3.83-1.74,70.83,70.83,0,0,0,6.45-7.8l-7,12.85c-.8.44-2.56,1.29-5.31,2.55q-19,8.65-19,17.08a3.51,3.51,0,0,0,1.15,2.63A4.15,4.15,0,0,0,183.63,89q4.86,0,11.52-5.38,7-5.58,12.56-15.88L209.77,64a48.16,48.16,0,0,0,12.78-9.83c.69-.77,1.29-1.47,1.81-2.09a10.49,10.49,0,0,0-.46,3,7.28,7.28,0,0,0,2,5.2,6.36,6.36,0,0,0,4.84,2.08q6.09,0,14.63-10.55l1.69-2.18a5,5,0,0,0,.74-1.07.23.23,0,0,0-.14-.29Zm-10.5-5.63q3.57-3,5.76-3,1.44,0,1.44,1.32,0,2.47-4.12,5.25a32.05,32.05,0,0,1-10.06,4.3A43.2,43.2,0,0,1,237.14,42.6Zm-55.38,9.69q-7,9.43-9.78,9.43c-1.58,0-2.37-.9-2.37-2.68q0-4.57,6.12-12t9.88-7.41c1.22,0,1.84.67,1.84,2q0,3-5.69,10.65Zm27.42,2.1q-5.79,7.32-8.22,7.33c-1.59,0-2.38-.92-2.38-2.76q0-4.53,6.1-11.91t9.81-7.39c1.33,0,2,.7,2,2.1q0,3.38-7.31,12.62Zm-6.26,12.75q-6.46,12-10.74,16.57t-8.81,4.62a3.49,3.49,0,0,1-2.43-.86,2.8,2.8,0,0,1-.94-2.14q0-7.39,18.76-16.67,3.87-1.89,4.65-2.34Z"></path><path class="cls-1" d="M90.52,74.68V88.33H88V82.48H80.92v5.85H78.39V74.68h2.53v5.63H88V74.68Z"></path><path class="cls-1" d="M95.11,81.5a7,7,0,0,1,7-7h.36a7,7,0,1,1-7.34,7.36C95.11,81.74,95.11,81.62,95.11,81.5Zm12.15,0a4.8,4.8,0,1,0-4.8,4.8,4.64,4.64,0,0,0,4.8-4.49Z"></path><path class="cls-1" d="M116.73,76.82h-4.52V74.68h11.58v2.14h-4.52V88.33h-2.54Z"></path><path class="cls-1" d="M138.12,86.2v2.13h-10.2V74.68h10V76.8h-7.5v3.55H137v2.09h-6.59V86.2Z"></path><path class="cls-1" d="M143.12,74.68h2.54v11.5h7.13v2.15h-9.67Z"></path><path class="cls-1" d="M156.37,86.89l.87-2a7.65,7.65,0,0,0,4.51,1.5c2.12,0,3-.76,3-1.78,0-2.94-8.11-1-8.11-6.08,0-2.21,1.75-4.08,5.5-4.08a8.71,8.71,0,0,1,4.54,1.21l-.8,2a7.57,7.57,0,0,0-3.74-1.06c-2.11,0-3,.82-3,1.85,0,2.91,8.1,1,8.1,6,0,2.18-1.78,4-5.52,4A8.81,8.81,0,0,1,156.37,86.89Z"></path></g></g><polygon class="cls-2" points="20.01 46.75 10.03 0 0 0 19.27 88.97 19.94 88.97 37.61 0 28.56 0 20.01 46.75"></polygon></g></g></svg> 