<?xml version="1.0" encoding="UTF-8" standalone="no" ?>
<!DOCTYPE svg PUBLIC "-//W3C//DTD SVG 1.1//EN" "http://www.w3.org/Graphics/SVG/1.1/DTD/svg11.dtd">
<svg xmlns="http://www.w3.org/2000/svg" xmlns:xlink="http://www.w3.org/1999/xlink" version="1.1" width="1080" height="1080" viewBox="0 0 1080 1080" xml:space="preserve">
<desc>Created with Fabric.js 5.2.4</desc>
<defs>
</defs>
<rect x="0" y="0" width="100%" height="100%" fill="transparent"></rect>
<g transform="matrix(1 0 0 1 540 540)" id="6d2112c4-ef21-4bd6-9f6a-4b53fb5c09d4"  >
<rect style="stroke: none; stroke-width: 1; stroke-dasharray: none; stroke-linecap: butt; stroke-dashoffset: 0; stroke-linejoin: miter; stroke-miterlimit: 4; fill: rgb(255,255,255); fill-rule: nonzero; opacity: 1; visibility: hidden;" vector-effect="non-scaling-stroke"  x="-540" y="-540" rx="0" ry="0" width="1080" height="1080" />
</g>
<g transform="matrix(1 0 0 1 540 540)" id="07309d4c-97f5-4c0e-9061-073d34d8175d"  >
</g>
<g transform="matrix(1 0 0 1 540 564.94)"  >
<g style="" vector-effect="non-scaling-stroke"   >
		<g transform="matrix(1 0 0 1 -15.92 -10.37)"  >
<path style="stroke: none; stroke-width: 1; stroke-dasharray: none; stroke-linecap: butt; stroke-dashoffset: 0; stroke-linejoin: miter; stroke-miterlimit: 4; fill: rgb(200,133,15); fill-rule: nonzero; opacity: 1;" vector-effect="non-scaling-stroke"  transform=" translate(-107.98, -34.13)" d="M 165.06 2.79 C 165.06 3.46 164.68 3.79 163.92000000000002 3.79 L 163.21 3.79 C 161.98191967526864 3.641674607646429 160.74687086719732 3.5582253638578263 159.51000000000002 3.54 Q 148.92000000000002 3.54 134.51000000000002 12.8 C 130.3418911662563 15.460019194916402 126.428578032387 18.49961570950435 122.81999999999996 21.880000000000035 Q 118.17000000000002 26.410000000000004 105.39000000000001 40.88 Q 90.32 58.11 82.67 63.66 Q 78.67 66.66 78.23 66.66 C 78.07000000000001 66.66 77.98 66.58 77.98 66.42999999999999 C 77.98 66.27999999999999 78.28 65.97999999999999 78.89 65.16 C 84.05102341367802 58.30906349883155 88.24064369353756 50.777842465638294 91.34 42.780000000000044 Q 96.52000000000001 29.87 96.52000000000001 21.220000000000002 Q 96.52000000000001 7.320000000000002 85.27000000000001 7.310000000000002 Q 80.83000000000001 7.310000000000002 75.05000000000001 10.360000000000003 C 71.13869555755919 12.421017813377478 67.5752932250468 15.083446260680763 64.49 18.25000000000002 C 61.10003586301695 21.70293681372825 58.30553560567456 25.69363186079157 56.22 30.060000000000027 C 54.289822219306174 33.84103951289722 53.23058690063439 38.006226136964635 53.12000000000001 42.25000000000003 C 52.96737166495306 45.19888687184414 53.97202438056024 48.09085147462768 55.92000000000001 50.31 C 57.847100816450705 52.33622891261434 60.55627576028669 53.43010843233277 63.35000000000001 53.31 Q 72.47000000000001 53.31 81.10000000000001 41.650000000000006 Q 87.26 33.330000000000005 87.26 26.760000000000005 C 87.34998538767678 25.067679586187452 86.82822172651782 23.399455635543184 85.79 22.060000000000006 C 84.82236095004833 20.892935632791175 83.36466227929273 20.245480639435257 81.85000000000001 20.310000000000006 C 80.88809741238657 20.3209819988394 79.93987601411838 20.539277572541433 79.07000000000001 20.95000000000001 C 78.14 21.370000000000008 77.68 21.800000000000008 77.68 22.230000000000008 C 77.68 22.390000000000008 77.78 22.480000000000008 77.97000000000001 22.480000000000008 L 78.29 22.480000000000008 C 79.05000000000001 22.370000000000008 79.47000000000001 22.310000000000006 79.55000000000001 22.310000000000006 C 80.76 22.310000000000006 81.37 22.980000000000008 81.37 24.310000000000006 C 81.3724083416803 25.150991640016205 81.00709834011207 25.951020543450632 80.37 26.500000000000007 C 79.76283090122087 27.098040772145637 78.94218709720622 27.42917774569541 78.09 27.42000000000001 C 76.4 27.42000000000001 75.55 26.54000000000001 75.55 24.800000000000008 C 75.56689718997109 23.343203486048935 76.25279086640592 21.97510373359023 77.41 21.090000000000007 C 78.6328597745599 20.040849563224945 80.19906655408992 19.478438946939168 81.81 19.510000000000005 C 83.51218060359652 19.45212489974216 85.1487749505372 20.169284220311674 86.26 21.460000000000004 C 87.41419291949836 22.89430578829783 88.00454038392469 24.700911281843467 87.92 26.540000000000003 Q 87.92 34.60000000000001 79.92 44.2 Q 71.79 54 63.16 54 C 59.799104803573 54.110482012391756 56.561965074067245 52.726275204978656 54.31999999999999 50.22 C 51.98091732770634 47.516833854191994 50.764459101140474 44.02130536197186 50.91999999999999 40.45000000000001 Q 50.919999999999995 29.020000000000003 62.379999999999995 17.880000000000003 Q 73.84 6.740000000000002 85.5 6.7 C 89.78895535200152 6.548889375611788 93.92152469214213 8.319990521386336 96.77 11.530000000000005 Q 101.09 16.36 101.09 24.22 Q 101.09 32.6 96.37 41.86 Q 91.65 51.12 81.15 63.37 C 80.98172152660104 63.535137363104035 80.84304084966708 63.72793732859758 80.74000000000001 63.94 L 80.82000000000001 64.06 C 81.29 64.06 83.01 62.79 85.96000000000001 60.24 C 88.44959171689355 58.10118599265617 90.80098119609434 55.80657722531107 92.99999999999997 53.37000000000001 Q 96.3 49.78 110.35 33.78 C 114.89178943357626 28.48244828767332 119.78626567526723 23.497766681801025 125 18.86 C 129.3972110373916 15.107440060712175 134.14198749262192 11.782413229347478 139.16999999999996 8.929999999999993 Q 151.92 1.6 161.7 1.6 C 163.92 1.6 165.06 2 165.06 2.79 Z" stroke-linecap="round" />
</g>
		<g transform="matrix(1 0 0 1 52.34 14.85)"  >
<path style="stroke: none; stroke-width: 1; stroke-dasharray: none; stroke-linecap: butt; stroke-dashoffset: 0; stroke-linejoin: miter; stroke-miterlimit: 4; fill: rgb(200,133,15); fill-rule: nonzero; opacity: 1;" vector-effect="non-scaling-stroke"  transform=" translate(-176.25, -59.35)" d="M 118.85 35.43 C 119.86914404457737 35.40172544573474 120.83001218341295 34.94848575760474 121.5 34.18 C 122.24628153106366 33.48082964476879 122.68196361219458 32.51224716688269 122.71 31.49 C 122.83533811282251 30.63990320990556 122.24962216799976 29.848516017282453 121.39999999999999 29.72 C 121.24062336921972 29.70002610952708 121.07937663078026 29.70002610952708 120.91999999999999 29.72 C 119.89382618006475 29.769237895122444 118.93102588243761 30.23080507900362 118.25 31 C 117.4987108650308 31.661841436553104 117.04771932214993 32.59990384574533 117 33.6 C 116.88169262149634 34.49182424314744 117.50828523048256 35.31087029632228 118.4 35.43 C 118.54932934724003 35.45005970229053 118.70067065275997 35.45005970229053 118.85 35.43 Z M 247.64 48.230000000000004 C 247.41 48.230000000000004 247.14 48.45 246.80999999999997 48.89 Q 237.36999999999998 61.59 230.85999999999999 61.6 Q 227.02999999999997 61.6 227.02999999999997 58.07 Q 227.02999999999997 55.25 229.82999999999998 51.07 Q 238.82999999999998 49.25 242.74999999999997 47.18 C 245.33999999999997 45.79 246.61999999999998 44.1 246.61999999999998 42.12 C 246.63762146988893 41.28430940410827 246.26861208597094 40.48724913484546 245.61999999999998 39.959999999999994 C 244.91619333748648 39.35881560611079 244.0153638795737 39.03836243926434 243.08999999999997 39.059999999999995 C 240.80999999999997 39.059999999999995 237.86999999999998 40.059999999999995 234.24999999999997 42.059999999999995 Q 227.18999999999997 45.91 224.94999999999996 50.599999999999994 C 223.09961067121247 53.00866063953912 221.0417421396187 55.25056619428358 218.79999999999995 57.29999999999999 C 216.13840970354988 59.54898943639946 213.25333721780476 61.519282841298576 210.18999999999994 63.18000000000001 L 220.4 45.55 C 222.62 41.699999999999996 223.83 39.64 224.02 39.39 C 222.9782795101835 39.56181984334522 221.92558108856178 39.65873493612945 220.87 39.68000000000001 C 220.21345487548194 39.668335051247 219.56125586350316 39.5708413845079 218.93 39.39 L 216.62 43.53 C 216.8479856525077 42.966811917597916 216.97329600115688 42.3673543037896 216.99 41.76 C 216.99 39.949999999999996 216.17000000000002 39.04 214.52 39.04 Q 210.98000000000002 39.04 204.77 42.91 C 201.02 45.25 198.42000000000002 47.739999999999995 196.94 50.39 C 195.07291109811337 53.0719279689578 193.01420197392295 55.61523583179694 190.78 58 Q 187.15 61.77 185.5 61.77 C 184.43 61.77 183.9 61.120000000000005 183.9 59.830000000000005 C 183.9 58.540000000000006 185.16 55.71000000000001 187.69 51.49000000000001 L 194.97 39.49000000000001 C 194.0163798471012 39.66667261780849 193.04971030394464 39.76367405985534 192.08 39.780000000000015 C 191.34123302143246 39.768465403579555 190.60630696434237 39.67114642798315 189.89000000000001 39.49000000000001 L 187.79000000000002 43.49000000000001 C 187.9796825102476 42.89023397165549 188.0906115550059 42.26835902376811 188.12000000000003 41.64000000000001 C 188.2795545511244 40.419613976036736 187.4202346802977 39.300707894231174 186.20000000000005 39.14000000000001 C 185.99074144416542 39.11504377634884 185.77925855583464 39.11504377634884 185.57000000000005 39.14000000000001 Q 182.57000000000005 39.14000000000001 177.70000000000005 41.86000000000001 Q 170.82000000000005 45.620000000000005 168.20000000000005 50.10000000000001 C 162.79000000000005 57.900000000000006 158.91000000000005 61.82000000000001 156.55000000000004 61.82000000000001 C 156.11348285705077 61.89199946651696 155.66628420779006 61.78677014418732 155.30767697420382 61.52767172410929 C 154.94906974061755 61.26857330403126 154.70872625924721 60.87704443773742 154.64000000000004 60.440000000000005 C 154.61507550880782 60.28097067228312 154.61507550880782 60.119029327716895 154.64000000000004 59.96000000000001 C 154.81984547588598 58.336513331938555 155.4006065070701 56.78323530770652 156.33000000000004 55.44000000000001 L 165.49000000000004 39.76000000000001 L 170.87000000000003 39.76000000000001 L 171.20000000000005 39.140000000000015 L 165.82000000000005 39.140000000000015 L 170.54000000000005 31.140000000000015 C 168.9905995698091 31.579760481618386 167.349400430191 31.57976048161839 165.80000000000004 31.140000000000015 L 160.99000000000004 39.140000000000015 L 156.83000000000004 39.140000000000015 L 156.42000000000004 39.76000000000001 L 160.61000000000004 39.76000000000001 L 154.36000000000004 50.250000000000014 Q 146.17000000000004 61.76000000000001 142.70000000000005 61.750000000000014 C 142.29848253526154 61.80653478434297 141.89118092534204 61.69810855831085 141.57091314210052 61.4494300442645 C 141.25064535885903 61.200751530218156 141.04469677281813 60.83300701585751 141 60.43 C 140.98002389470912 60.29406329330149 140.98002389470912 60.15593670669851 141 60.02 Q 141 58.42 144.87 52.61 C 147.38 48.83 148.65 46.019999999999996 148.65 44.18 C 148.68773059645628 42.85263185007205 148.25170226603632 41.555181696139464 147.42000000000002 40.519999999999996 C 146.70366558968868 39.586809022830664 145.59640689515814 39.036870537880496 144.42000000000002 39.029999999999994 C 142.95000000000002 39.029999999999994 141.34 39.85999999999999 139.61 41.49999999999999 C 136.87991435180373 44.347647753846815 134.38821273500918 47.41461471035772 132.16000000000003 50.66999999999998 Q 135.24000000000004 45.96999999999999 135.24000000000004 43.349999999999994 C 135.25042132277937 42.26648350184118 134.8984469571188 41.21056040485944 134.24000000000004 40.349999999999994 C 133.70137777809157 39.562404919629444 132.81403850181923 39.08518043491155 131.86000000000004 39.06999999999999 Q 129.67000000000004 39.06999999999999 123.40000000000003 47.519999999999996 L 122.52000000000004 48.599999999999994 Q 113.34000000000003 61.709999999999994 109.69000000000004 61.709999999999994 C 108.41000000000004 61.709999999999994 107.77000000000004 61.089999999999996 107.77000000000004 59.85999999999999 C 107.77000000000004 58.62999999999999 108.44000000000004 56.93999999999999 109.77000000000004 54.71999999999999 L 119.10000000000004 39.379999999999995 C 118.07507885187887 39.551809168007885 117.03900405906334 39.648732293787404 116.00000000000004 39.67 C 115.32464128995528 39.647806286681615 114.6538483093249 39.55054130449021 114.00000000000004 39.379999999999995 L 107.54000000000005 50.279999999999994 C 105.64000000000004 53.50999999999999 104.68000000000005 55.919999999999995 104.68000000000005 57.50999999999999 C 104.64651911029284 58.77961432249216 105.11342075052987 60.01151634250217 105.98000000000005 60.93999999999999 C 106.8010964630578 61.84704814296612 107.97689861160542 62.350963349486534 109.20000000000005 62.31999999999999 Q 113.26000000000005 62.31999999999999 120.99000000000004 51.56999999999999 L 122.75000000000004 49.13999999999999 C 122.81000000000004 49.04999999999999 123.11000000000004 48.699999999999996 123.25000000000004 48.49999999999999 C 127.36000000000004 42.599999999999994 130.13000000000005 39.64999999999999 131.53000000000003 39.64999999999999 C 132.20000000000002 39.64999999999999 132.53000000000003 40.05999999999999 132.53000000000003 40.87999999999999 Q 132.53000000000003 43.069999999999986 127.04000000000003 51.79999999999999 L 120.61 62 C 121.51238507913742 61.88827810665025 122.42072647561389 61.83150676937046 123.33000000000001 61.83 C 123.6 61.83 124.41 61.89 125.75 62 Q 138.25 39.68 144.24 39.68 C 145.42000000000002 39.68 146.01000000000002 40.24 146.01000000000002 41.37 Q 146.01000000000002 42.72 142.67000000000002 47.66 C 141.21267607112833 49.67172767196948 139.87695866160064 51.76880400492796 138.67000000000002 53.940000000000026 C 138.16357797613446 55.01181854719396 137.907131458796 56.18463395315524 137.92000000000002 57.37 C 137.87917045465434 58.66657585271637 138.3291492144615 59.9308018921746 139.18 60.91 C 139.95033775211246 61.83502038719806 141.0963019442251 62.36392693740389 142.3 62.349999999999994 Q 145.12 62.349999999999994 150.04000000000002 56.49999999999999 C 150.98000000000002 55.38999999999999 151.8 54.39999999999999 152.52 53.49999999999999 C 151.92043701993532 54.731019411654366 151.58007286950598 56.07205416434595 151.52 57.44 C 151.48514647187704 58.73076067167861 151.9509917238699 59.98495942704396 152.82000000000002 60.93999999999999 C 153.6357983696133 61.85669506196938 154.8131999537838 62.36860879421742 156.04000000000002 62.33999999999999 Q 159.81000000000003 62.33999999999999 167.12000000000003 52.33999999999999 C 166.7495220740778 53.44908213267453 166.56042527777137 54.6106767385567 166.56000000000003 55.77999999999999 C 166.49820026602902 57.45779158868922 167.00569900258787 59.10716248250557 168 60.46 C 168.8452301312712 61.6392022414469 170.20917439915726 62.336080870120924 171.66 62.33 C 173.2693857375452 62.22257243788529 174.77783664703438 61.507666793577634 175.88 60.33 C 178.20111830265887 57.92910165213755 180.3028262315556 55.32539342175276 182.16000000000003 52.54999999999998 C 181.34919428739687 54.03082073860982 180.90029792017066 55.682485234816205 180.85 57.37 C 180.80339887146553 58.65843587150983 181.22627441095227 59.91995533804588 182.04 60.919999999999995 C 182.79089590999985 61.85097965892189 183.93449411386737 62.3765166975924 185.13 62.339999999999996 Q 187.94 62.339999999999996 192.79 56.489999999999995 C 194.01 55.03999999999999 195.01999999999998 53.809999999999995 195.87 52.74999999999999 C 195.56716215968706 53.75213755730979 195.41219588223393 54.793106681940564 195.41 55.83999999999999 C 195.35789686416157 57.50445773130986 195.88840961354387 59.134900247744746 196.91 60.44999999999999 C 197.75011991494648 61.62717848552859 199.1038147336488 62.3300584875471 200.54999999999998 62.33999999999999 C 202.00403092668924 62.27873614799333 203.37735205538084 61.65482524357469 204.38 60.59999999999999 C 206.71325277043803 58.157137397217525 208.868754570411 55.55048405771533 210.82999999999998 52.79999999999999 L 203.82999999999998 65.64999999999999 C 203.02999999999997 66.08999999999999 201.26999999999998 66.94 198.51999999999998 68.19999999999999 Q 179.51999999999998 76.85 179.51999999999998 85.27999999999999 C 179.5109644357141 86.28050388981272 179.92933968610356 87.23730989722515 180.67 87.90999999999998 C 181.4747472628508 88.64875764102213 182.53832801982085 89.04041406841989 183.63 89 Q 188.49 89 195.15 83.62 Q 202.15 78.04 207.71 67.74000000000001 L 209.77 64 C 214.5521176231905 61.46476983947446 218.87265144566126 58.14154233752708 222.55 54.16999999999999 C 223.24 53.4 223.84 52.7 224.36 52.08 C 224.06204797526863 53.05241339081165 223.90709316345598 54.062988250459455 223.9 55.08 C 223.85080070337656 57.00995570824467 224.57021164543514 58.880424157596984 225.9 60.28 C 227.13685270111318 61.64031592618998 228.9018606913599 62.398831756709235 230.74 62.36 Q 236.83 62.36 245.37 51.81 L 247.06 49.63 C 247.35221299354288 49.30708270664177 247.60098493074216 48.94737193258339 247.8 48.56 C 247.840076885241 48.44133892231576 247.7778422237802 48.312424266432664 247.66000000000003 48.27 Z M 237.14 42.6 Q 240.70999999999998 39.6 242.89999999999998 39.6 Q 244.33999999999997 39.6 244.33999999999997 40.92 Q 244.33999999999997 43.39 240.21999999999997 46.17 C 237.13789692295455 48.16930999518309 233.734996028332 49.623830258292124 230.15999999999997 50.47 C 232.15739106823628 47.57212709539534 234.50143148996378 44.929204728777094 237.14 42.60000000000002 Z M 181.76 52.29 Q 174.76 61.72 171.98 61.72 C 170.39999999999998 61.72 169.60999999999999 60.82 169.60999999999999 59.04 Q 169.60999999999999 54.47 175.73 47.04 Q 181.85 39.61 185.60999999999999 39.629999999999995 C 186.82999999999998 39.629999999999995 187.45 40.3 187.45 41.629999999999995 Q 187.45 44.629999999999995 181.76 52.279999999999994 Z M 209.18 54.39 Q 203.39000000000001 61.71 200.96 61.72 C 199.37 61.72 198.58 60.8 198.58 58.96 Q 198.58 54.43 204.68 47.05 Q 210.78 39.669999999999995 214.49 39.66 C 215.82000000000002 39.66 216.49 40.36 216.49 41.76 Q 216.49 45.14 209.18 54.379999999999995 Z M 202.92000000000002 67.14 Q 196.46 79.14 192.18 83.71000000000001 Q 187.9 88.28000000000002 183.37 88.33000000000001 C 182.47993385785043 88.36392704961348 181.61057824478604 88.05625386968123 180.94 87.47000000000001 C 180.3296788598671 86.927809842852 179.9863802361815 86.14625765701452 180 85.33000000000001 Q 180 77.94000000000001 198.76 68.66000000000001 Q 202.63 66.77000000000001 203.41 66.32000000000001 Z" stroke-linecap="round" />
</g>
		<g transform="matrix(1 0 0 1 -39.45 37)"  >
<path style="stroke: none; stroke-width: 1; stroke-dasharray: none; stroke-linecap: butt; stroke-dashoffset: 0; stroke-linejoin: miter; stroke-miterlimit: 4; fill: rgb(200,133,15); fill-rule: nonzero; opacity: 1;" vector-effect="non-scaling-stroke"  transform=" translate(-84.45, -81.5)" d="M 90.52 74.68 L 90.52 88.33 L 88 88.33 L 88 82.48 L 80.92 82.48 L 80.92 88.33 L 78.39 88.33 L 78.39 74.68 L 80.92 74.68 L 80.92 80.31 L 88 80.31 L 88 74.68 Z" stroke-linecap="round" />
</g>
		<g transform="matrix(1 0 0 1 -21.79 36.99)"  >
<path style="stroke: none; stroke-width: 1; stroke-dasharray: none; stroke-linecap: butt; stroke-dashoffset: 0; stroke-linejoin: miter; stroke-miterlimit: 4; fill: rgb(200,133,15); fill-rule: nonzero; opacity: 1;" vector-effect="non-scaling-stroke"  transform=" translate(-102.12, -81.5)" d="M 95.11 81.5 C 95.11 77.63400675118444 98.24400675118444 74.5 102.11 74.5 L 102.47 74.5 C 106.23804354253936 74.68848624296292 109.1788429994957 77.82923960846664 109.11941254173064 81.60152634504283 C 109.05998208396558 85.37381308161903 106.02170471592999 88.42036913458116 102.24959366017328 88.49006407913852 C 98.47748260441655 88.55975902369586 95.32873870588594 85.62751670587427 95.13 81.86 C 95.11 81.74 95.11 81.62 95.11 81.5 Z M 107.26 81.5 C 107.26 79.55858122491301 106.09051754568844 77.80832704445415 104.29688047535244 77.06537824394582 C 102.50324340501643 76.3224294434375 100.43867783129147 76.73309706931768 99.06588745030457 78.10588745030456 C 97.69309706931769 79.47867783129146 97.28242944343751 81.54324340501643 98.02537824394582 83.33688047535243 C 98.76832704445415 85.13051754568843 100.51858122491302 86.3 102.46000000000001 86.3 C 103.69248041093472 86.3431457491573 104.89143508229415 85.89387480103646 105.79206182658133 85.05141353398449 C 106.69268857086851 84.20895226693253 107.22088745248797 83.04261499570435 107.26 81.81 Z" stroke-linecap="round" />
</g>
		<g transform="matrix(1 0 0 1 -5.91 37)"  >
<path style="stroke: none; stroke-width: 1; stroke-dasharray: none; stroke-linecap: butt; stroke-dashoffset: 0; stroke-linejoin: miter; stroke-miterlimit: 4; fill: rgb(200,133,15); fill-rule: nonzero; opacity: 1;" vector-effect="non-scaling-stroke"  transform=" translate(-118, -81.5)" d="M 116.73 76.82 L 112.21000000000001 76.82 L 112.21000000000001 74.68 L 123.79 74.68 L 123.79 76.82000000000001 L 119.27000000000001 76.82000000000001 L 119.27000000000001 88.33 L 116.73 88.33 Z" stroke-linecap="round" />
</g>
		<g transform="matrix(1 0 0 1 9.11 37)"  >
<path style="stroke: none; stroke-width: 1; stroke-dasharray: none; stroke-linecap: butt; stroke-dashoffset: 0; stroke-linejoin: miter; stroke-miterlimit: 4; fill: rgb(200,133,15); fill-rule: nonzero; opacity: 1;" vector-effect="non-scaling-stroke"  transform=" translate(-133.02, -81.5)" d="M 138.12 86.2 L 138.12 88.33 L 127.92 88.33 L 127.92 74.68 L 137.92000000000002 74.68 L 137.92000000000002 76.8 L 130.42000000000002 76.8 L 130.42000000000002 80.35 L 137 80.35 L 137 82.44 L 130.41 82.44 L 130.41 86.2 Z" stroke-linecap="round" />
</g>
		<g transform="matrix(1 0 0 1 24.05 37)"  >
<path style="stroke: none; stroke-width: 1; stroke-dasharray: none; stroke-linecap: butt; stroke-dashoffset: 0; stroke-linejoin: miter; stroke-miterlimit: 4; fill: rgb(200,133,15); fill-rule: nonzero; opacity: 1;" vector-effect="non-scaling-stroke"  transform=" translate(-147.95, -81.51)" d="M 143.12 74.68 L 145.66 74.68 L 145.66 86.18 L 152.79 86.18 L 152.79 88.33000000000001 L 143.12 88.33000000000001 Z" stroke-linecap="round" />
</g>
		<g transform="matrix(1 0 0 1 37.9 36.95)"  >
<path style="stroke: none; stroke-width: 1; stroke-dasharray: none; stroke-linecap: butt; stroke-dashoffset: 0; stroke-linejoin: miter; stroke-miterlimit: 4; fill: rgb(200,133,15); fill-rule: nonzero; opacity: 1;" vector-effect="non-scaling-stroke"  transform=" translate(-161.8, -81.45)" d="M 156.37 86.89 L 157.24 84.89 C 158.5459380897544 85.85616963365831 160.12553504495938 86.38153447463559 161.75 86.39 C 163.87 86.39 164.75 85.63 164.75 84.61 C 164.75 81.67 156.64 83.61 156.64 78.53 C 156.64 76.32000000000001 158.39 74.45 162.14 74.45 C 163.73560138601783 74.42983956981335 165.30607849697165 74.84840285268871 166.67999999999998 75.66 L 165.87999999999997 77.66 C 164.74685401915593 76.98714201327562 163.45768134249545 76.6217615220296 162.13999999999996 76.6 C 160.02999999999994 76.6 159.13999999999996 77.41999999999999 159.13999999999996 78.44999999999999 C 159.13999999999996 81.35999999999999 167.23999999999995 79.44999999999999 167.23999999999995 84.44999999999999 C 167.23999999999995 86.63 165.45999999999995 88.44999999999999 161.71999999999994 88.44999999999999 C 159.81484799810394 88.52258342178582 157.93755911997982 87.97518703863186 156.37 86.89 Z" stroke-linecap="round" />
</g>
		<g transform="matrix(1 0 0 1 -105.1 -0.02)"  >
<polygon style="stroke: none; stroke-width: 1; stroke-dasharray: none; stroke-linecap: butt; stroke-dashoffset: 0; stroke-linejoin: miter; stroke-miterlimit: 4; fill: rgb(200,133,15); fill-rule: nonzero; opacity: 1;" vector-effect="non-scaling-stroke"  points="1.21,2.27 -8.78,-44.48 -18.8,-44.48 0.46,44.48 1.14,44.48 18.8,-44.48 9.75,-44.48 1.21,2.27 " />
</g>
</g>
</g>
</svg>